<mxfile type="github" version="13.6.0" host="app.diagrams.net" modified="2020-08-06T19:05:41.022Z" agent="5.0 (Windows NT 10.0; Win64; x64) AppleWebKit/537.36 (KHTML, like Gecko) Chrome/70.0.3538.102 Safari/537.36 Edge/18.18362" etag="sDfR4omsiSa9sKRw6RQ0">
  <diagram id="kOIxZrCoPf-Dxrduo3v7" name="Page-1">
    <mxGraphModel grid="1" dx="1331" dy="746" gridSize="10" guides="1" tooltips="1" connect="1" arrows="1" fold="1" page="1" pageScale="1" pageWidth="850" pageHeight="1100" math="0" shadow="0">
      <root>
        <mxCell id="0" />
        <mxCell id="1" parent="0" />
        <mxCell id="3EejpD3rlkt8IfYELEFp-14" source="3EejpD3rlkt8IfYELEFp-1" parent="1" style="edgeStyle=orthogonalEdgeStyle;rounded=0;orthogonalLoop=1;jettySize=auto;html=1;" target="3EejpD3rlkt8IfYELEFp-4" edge="1">
          <mxGeometry as="geometry" relative="1" />
        </mxCell>
        <mxCell id="3EejpD3rlkt8IfYELEFp-1" value="Set Temperature and pressure at a certain calibration point" parent="1" style="rounded=0;whiteSpace=wrap;html=1;" vertex="1">
          <mxGeometry as="geometry" x="120" y="160" width="200" height="40" />
        </mxCell>
        <mxCell id="3EejpD3rlkt8IfYELEFp-13" source="3EejpD3rlkt8IfYELEFp-3" parent="1" style="edgeStyle=orthogonalEdgeStyle;rounded=0;orthogonalLoop=1;jettySize=auto;html=1;exitX=0.5;exitY=1;exitDx=0;exitDy=0;exitPerimeter=0;entryX=0.5;entryY=0;entryDx=0;entryDy=0;" target="3EejpD3rlkt8IfYELEFp-1" edge="1">
          <mxGeometry as="geometry" relative="1" />
        </mxCell>
        <mxCell id="3EejpD3rlkt8IfYELEFp-3" value="Start" parent="1" style="strokeWidth=2;html=1;shape=mxgraph.flowchart.terminator;whiteSpace=wrap;" vertex="1">
          <mxGeometry as="geometry" x="160" y="70" width="120" height="40" />
        </mxCell>
        <mxCell id="3EejpD3rlkt8IfYELEFp-15" source="3EejpD3rlkt8IfYELEFp-4" parent="1" style="edgeStyle=orthogonalEdgeStyle;rounded=0;orthogonalLoop=1;jettySize=auto;html=1;entryX=0.5;entryY=0;entryDx=0;entryDy=0;" target="3EejpD3rlkt8IfYELEFp-7" edge="1">
          <mxGeometry as="geometry" relative="1" />
        </mxCell>
        <mxCell id="3EejpD3rlkt8IfYELEFp-4" value="wait until the temperature and pressure are stable" parent="1" style="rounded=0;whiteSpace=wrap;html=1;" vertex="1">
          <mxGeometry as="geometry" x="120" y="230" width="200" height="40" />
        </mxCell>
        <mxCell id="3EejpD3rlkt8IfYELEFp-21" source="3EejpD3rlkt8IfYELEFp-6" parent="1" style="edgeStyle=orthogonalEdgeStyle;rounded=0;orthogonalLoop=1;jettySize=auto;html=1;exitX=0.5;exitY=1;exitDx=0;exitDy=0;entryX=0.5;entryY=0;entryDx=0;entryDy=0;" target="3EejpD3rlkt8IfYELEFp-9" edge="1">
          <mxGeometry as="geometry" relative="1" />
        </mxCell>
        <mxCell id="3EejpD3rlkt8IfYELEFp-6" value="Format Calibration Data" parent="1" style="rounded=0;whiteSpace=wrap;html=1;" vertex="1">
          <mxGeometry as="geometry" x="425" y="160" width="175" height="40" />
        </mxCell>
        <mxCell id="3EejpD3rlkt8IfYELEFp-16" source="3EejpD3rlkt8IfYELEFp-7" parent="1" style="edgeStyle=orthogonalEdgeStyle;rounded=0;orthogonalLoop=1;jettySize=auto;html=1;entryX=0.5;entryY=0;entryDx=0;entryDy=0;entryPerimeter=0;" target="3EejpD3rlkt8IfYELEFp-8" edge="1">
          <mxGeometry as="geometry" relative="1" />
        </mxCell>
        <mxCell id="3EejpD3rlkt8IfYELEFp-7" value="measure the frequencies of central beam and side beam" parent="1" style="rounded=0;whiteSpace=wrap;html=1;" vertex="1">
          <mxGeometry as="geometry" x="120" y="307" width="200" height="39" />
        </mxCell>
        <mxCell id="3EejpD3rlkt8IfYELEFp-18" source="3EejpD3rlkt8IfYELEFp-8" parent="1" style="edgeStyle=orthogonalEdgeStyle;rounded=0;orthogonalLoop=1;jettySize=auto;html=1;" edge="1">
          <mxGeometry as="geometry" relative="1">
            <mxPoint as="targetPoint" x="220" y="120" />
            <Array as="points">
              <mxPoint x="60" y="445" />
              <mxPoint x="60" y="120" />
            </Array>
          </mxGeometry>
        </mxCell>
        <mxCell id="3EejpD3rlkt8IfYELEFp-19" value="NO" parent="3EejpD3rlkt8IfYELEFp-18" style="edgeLabel;html=1;align=center;verticalAlign=middle;resizable=0;points=[];" vertex="1" connectable="0">
          <mxGeometry as="geometry" x="-0.1866" y="-1" relative="1">
            <mxPoint as="offset" />
          </mxGeometry>
        </mxCell>
        <mxCell id="3EejpD3rlkt8IfYELEFp-20" source="3EejpD3rlkt8IfYELEFp-8" parent="1" style="edgeStyle=orthogonalEdgeStyle;rounded=0;orthogonalLoop=1;jettySize=auto;html=1;entryX=0.5;entryY=0;entryDx=0;entryDy=0;" target="3EejpD3rlkt8IfYELEFp-6" edge="1">
          <mxGeometry as="geometry" relative="1" />
        </mxCell>
        <mxCell id="3EejpD3rlkt8IfYELEFp-27" value="Yes" parent="3EejpD3rlkt8IfYELEFp-20" style="edgeLabel;html=1;align=center;verticalAlign=middle;resizable=0;points=[];" vertex="1" connectable="0">
          <mxGeometry as="geometry" x="-0.4784" y="-1" relative="1">
            <mxPoint as="offset" />
          </mxGeometry>
        </mxCell>
        <mxCell id="3EejpD3rlkt8IfYELEFp-8" value="Calibration completed?" parent="1" style="strokeWidth=2;html=1;shape=mxgraph.flowchart.decision;whiteSpace=wrap;" vertex="1">
          <mxGeometry as="geometry" x="170" y="395" width="100" height="100" />
        </mxCell>
        <mxCell id="3EejpD3rlkt8IfYELEFp-22" source="3EejpD3rlkt8IfYELEFp-9" parent="1" style="edgeStyle=orthogonalEdgeStyle;rounded=0;orthogonalLoop=1;jettySize=auto;html=1;" target="3EejpD3rlkt8IfYELEFp-10" edge="1">
          <mxGeometry as="geometry" relative="1" />
        </mxCell>
        <mxCell id="3EejpD3rlkt8IfYELEFp-9" value="Fit the compensation function using MATLAB" parent="1" style="rounded=0;whiteSpace=wrap;html=1;" vertex="1">
          <mxGeometry as="geometry" x="425" y="234" width="175" height="40" />
        </mxCell>
        <mxCell id="3EejpD3rlkt8IfYELEFp-23" source="3EejpD3rlkt8IfYELEFp-10" parent="1" style="edgeStyle=orthogonalEdgeStyle;rounded=0;orthogonalLoop=1;jettySize=auto;html=1;entryX=0.5;entryY=0;entryDx=0;entryDy=0;" target="3EejpD3rlkt8IfYELEFp-11" edge="1">
          <mxGeometry as="geometry" relative="1" />
        </mxCell>
        <mxCell id="3EejpD3rlkt8IfYELEFp-10" value="Self -temperature compensation&amp;nbsp;" parent="1" style="rounded=0;whiteSpace=wrap;html=1;" vertex="1">
          <mxGeometry as="geometry" x="425" y="300" width="175" height="40" />
        </mxCell>
        <mxCell id="3EejpD3rlkt8IfYELEFp-24" source="3EejpD3rlkt8IfYELEFp-11" parent="1" style="edgeStyle=orthogonalEdgeStyle;rounded=0;orthogonalLoop=1;jettySize=auto;html=1;entryX=0.5;entryY=0;entryDx=0;entryDy=0;" target="3EejpD3rlkt8IfYELEFp-12" edge="1">
          <mxGeometry as="geometry" relative="1" />
        </mxCell>
        <mxCell id="3EejpD3rlkt8IfYELEFp-11" value="measure frequencies of central and side beam&amp;nbsp;" parent="1" style="rounded=0;whiteSpace=wrap;html=1;" vertex="1">
          <mxGeometry as="geometry" x="425" y="380" width="175" height="40" />
        </mxCell>
        <mxCell id="3EejpD3rlkt8IfYELEFp-29" source="3EejpD3rlkt8IfYELEFp-12" value="" parent="1" style="edgeStyle=orthogonalEdgeStyle;rounded=0;orthogonalLoop=1;jettySize=auto;html=1;" target="3EejpD3rlkt8IfYELEFp-26" edge="1">
          <mxGeometry as="geometry" relative="1" />
        </mxCell>
        <mxCell id="3EejpD3rlkt8IfYELEFp-12" value="calculate with compensation function (pressure, temperature)" parent="1" style="rounded=0;whiteSpace=wrap;html=1;" vertex="1">
          <mxGeometry as="geometry" x="425" y="460" width="175" height="40" />
        </mxCell>
        <mxCell id="3EejpD3rlkt8IfYELEFp-26" value="End" parent="1" style="strokeWidth=2;html=1;shape=mxgraph.flowchart.terminator;whiteSpace=wrap;" vertex="1">
          <mxGeometry as="geometry" x="453" y="529" width="120" height="40" />
        </mxCell>
      </root>
    </mxGraphModel>
  </diagram>
</mxfile>
